<svg width="285" height="272" viewBox="0 0 285 272" fill="none" xmlns="http://www.w3.org/2000/svg">
<g clip-path="url(#clip0)">
<mask id="mask0" mask-type="alpha" maskUnits="userSpaceOnUse" x="-54" y="48" width="281" height="354">
<path d="M179.828 390.974C237.53 358.594 242.585 257.994 191.117 166.277C139.65 74.5606 51.1497 26.4592 -6.55287 58.8396C-64.2554 91.22 -69.3099 191.82 -17.8422 283.537C33.6254 375.253 122.125 423.355 179.828 390.974Z" fill="#4953BE"/>
</mask>
<g mask="url(#mask0)">
<path d="M195.273 147.859L-2.89282 297.077L-1.09313 300.313L197.073 151.095L195.273 147.859Z" fill="white"/>
<path d="M189.184 136.909L-8.98193 286.127L-7.18224 289.363L190.983 140.145L189.184 136.909Z" fill="white"/>
<path d="M183.095 125.959L-15.0708 275.177L-13.2711 278.413L184.895 129.195L183.095 125.959Z" fill="white"/>
<path d="M201.362 158.808L3.19629 308.026L4.99598 311.262L203.162 162.044L201.362 158.808Z" fill="white"/>
<path d="M207.451 169.758L9.28516 318.976L11.0848 322.212L209.251 172.994L207.451 169.758Z" fill="white"/>
<path d="M213.54 180.708L15.3743 329.926L17.174 333.162L215.34 183.944L213.54 180.708Z" fill="white"/>
<path d="M219.629 191.658L21.4634 340.876L23.2631 344.112L221.429 194.894L219.629 191.658Z" fill="white"/>
<path d="M232.761 229.142L34.5952 378.36L36.3949 381.596L234.561 232.378L232.761 229.142Z" fill="white"/>
<path d="M226.672 218.192L28.5061 367.41L30.3058 370.646L228.471 221.428L226.672 218.192Z" fill="white"/>
<path d="M220.583 207.242L22.417 356.46L24.2167 359.696L222.382 210.478L220.583 207.242Z" fill="white"/>
<path d="M238.85 240.092L40.6841 389.31L42.4838 392.546L240.649 243.328L238.85 240.092Z" fill="white"/>
<path d="M244.939 251.041L46.7729 400.259L48.5726 403.495L246.738 254.277L244.939 251.041Z" fill="white"/>
<path d="M251.028 261.991L52.8623 411.209L54.662 414.445L252.828 265.227L251.028 261.991Z" fill="white"/>
<path d="M307.069 265.044L108.903 414.262L110.703 417.498L308.868 268.28L307.069 265.044Z" fill="white"/>
<path d="M300.98 254.094L102.814 403.312L104.614 406.548L302.779 257.33L300.98 254.094Z" fill="white"/>
<path d="M159.395 96.6036L-38.7708 245.822L-36.9711 249.058L161.195 99.8399L159.395 96.6036Z" fill="white"/>
<path d="M153.306 85.6546L-44.8599 234.873L-43.0602 238.109L155.105 88.8909L153.306 85.6546Z" fill="white"/>
<path d="M147.217 74.7046L-50.9487 223.923L-49.149 227.159L149.017 77.941L147.217 74.7046Z" fill="white"/>
<path d="M165.484 107.554L-32.6816 256.772L-30.8819 260.008L167.284 110.79L165.484 107.554Z" fill="white"/>
<path d="M171.573 118.504L-26.5928 267.722L-24.7931 270.958L173.373 121.74L171.573 118.504Z" fill="white"/>
<path d="M177.662 129.454L-20.5037 278.672L-18.704 281.908L179.462 132.69L177.662 129.454Z" fill="white"/>
<path d="M183.751 140.404L-14.4148 289.622L-12.6151 292.858L185.551 143.64L183.751 140.404Z" fill="white"/>
<path d="M196.883 177.888L-1.28271 327.106L0.516974 330.342L198.683 181.124L196.883 177.888Z" fill="white"/>
<path d="M190.794 166.938L-7.37183 316.156L-5.57214 319.392L192.594 170.174L190.794 166.938Z" fill="white"/>
<path d="M184.705 155.988L-13.4609 305.206L-11.6612 308.442L186.504 159.224L184.705 155.988Z" fill="white"/>
<path d="M202.972 188.837L4.80615 338.055L6.60584 341.291L204.772 192.073L202.972 188.837Z" fill="white"/>
<path d="M209.061 199.787L10.895 349.005L12.6947 352.241L210.86 203.023L209.061 199.787Z" fill="white"/>
<path d="M215.15 210.737L16.9844 359.955L18.7841 363.191L216.95 213.973L215.15 210.737Z" fill="white"/>
<path d="M221.239 221.687L23.0732 370.905L24.8729 374.141L223.039 224.923L221.239 221.687Z" fill="white"/>
<path d="M58.1677 -45.6264L-139.998 103.592L-138.198 106.828L59.9674 -42.3901L58.1677 -45.6264Z" fill="white"/>
<path d="M52.0787 -56.5762L-146.087 92.6422L-144.287 95.8786L53.8784 -53.3399L52.0787 -56.5762Z" fill="white"/>
<path d="M45.9897 -67.526L-152.176 81.6924L-150.376 84.9288L47.7894 -64.2897L45.9897 -67.526Z" fill="white"/>
<path d="M64.2577 -34.6764L-133.908 114.542L-132.108 117.778L66.0573 -31.4401L64.2577 -34.6764Z" fill="white"/>
<path d="M70.3457 -23.7264L-127.82 125.492L-126.02 128.728L72.1454 -20.4901L70.3457 -23.7264Z" fill="white"/>
<path d="M76.4357 -12.7764L-121.73 136.442L-119.93 139.678L78.2353 -9.54005L76.4357 -12.7764Z" fill="white"/>
<path d="M82.5237 -1.82742L-115.642 147.391L-113.842 150.627L84.3234 1.40896L82.5237 -1.82742Z" fill="white"/>
<path d="M95.6557 35.6566L-102.51 184.875L-100.71 188.111L97.4554 38.893L95.6557 35.6566Z" fill="white"/>
<path d="M89.5667 24.7066L-108.599 173.925L-106.799 177.161L91.3664 27.943L89.5667 24.7066Z" fill="white"/>
<path d="M83.4777 13.7576L-114.688 162.976L-112.888 166.212L85.2774 16.9939L83.4777 13.7576Z" fill="white"/>
<path d="M101.745 46.6066L-96.4207 195.825L-94.621 199.061L103.545 49.8429L101.745 46.6066Z" fill="white"/>
<path d="M107.834 57.5566L-90.3318 206.775L-88.5321 210.011L109.634 60.7929L107.834 57.5566Z" fill="white"/>
<path d="M113.923 68.5066L-84.2424 217.725L-82.4427 220.961L115.723 71.743L113.923 68.5066Z" fill="white"/>
<path d="M120.012 79.4566L-78.1536 228.675L-76.3539 231.911L121.812 82.6929L120.012 79.4566Z" fill="white"/>
</g>
</g>
<defs>
<clipPath id="clip0">
<rect width="285" height="272" fill="white"/>
</clipPath>
</defs>
</svg>
