<svg width="129" height="423" viewBox="0 0 129 423" fill="none" xmlns="http://www.w3.org/2000/svg">
<g clip-path="url(#clip0)">
<mask id="mask0" mask-type="alpha" maskUnits="userSpaceOnUse" x="50" y="39" width="266" height="365">
<path d="M255.969 397.766C317.138 372.537 334.217 273.269 294.118 176.043C254.018 78.8173 171.924 20.4519 110.755 45.6803C49.5863 70.9087 32.5066 170.177 72.6064 267.403C112.706 364.629 194.8 422.994 255.969 397.766Z" fill="#4953BE"/>
</mask>
<g mask="url(#mask0)">
<path d="M291.998 144.675L93.8321 293.893L95.6318 297.129L293.797 147.911L291.998 144.675Z" fill="#FF6D69"/>
<path d="M285.909 133.725L87.743 282.943L89.5427 286.179L287.708 136.961L285.909 133.725Z" fill="#FF6D69"/>
<path d="M279.82 122.775L81.6541 271.993L83.4538 275.229L281.619 126.011L279.82 122.775Z" fill="#FF6D69"/>
<path d="M298.087 155.625L99.9211 304.843L101.721 308.079L299.886 158.861L298.087 155.625Z" fill="#FF6D69"/>
<path d="M304.176 166.574L106.01 315.792L107.81 319.028L305.975 169.81L304.176 166.574Z" fill="#FF6D69"/>
<path d="M310.265 177.524L112.099 326.742L113.899 329.978L312.064 180.76L310.265 177.524Z" fill="#FF6D69"/>
<path d="M316.354 188.474L118.188 337.692L119.988 340.928L318.153 191.71L316.354 188.474Z" fill="#FF6D69"/>
<path d="M323.397 215.008L125.231 364.226L127.031 367.462L325.196 218.244L323.397 215.008Z" fill="#FF6D69"/>
<path d="M317.308 204.058L119.142 353.276L120.942 356.512L319.107 207.294L317.308 204.058Z" fill="#FF6D69"/>
<path d="M256.12 93.4196L57.9542 242.638L59.7539 245.874L257.92 96.656L256.12 93.4196Z" fill="#FF6D69"/>
<path d="M250.031 82.4706L51.8651 231.689L53.6648 234.925L251.83 85.7069L250.031 82.4706Z" fill="#FF6D69"/>
<path d="M243.942 71.5206L45.7762 220.739L47.5759 223.975L245.742 74.7569L243.942 71.5206Z" fill="#FF6D69"/>
<path d="M262.209 104.37L64.0432 253.588L65.8429 256.824L264.009 107.606L262.209 104.37Z" fill="#FF6D69"/>
<path d="M268.298 115.32L70.1321 264.538L71.9318 267.774L270.097 118.556L268.298 115.32Z" fill="#FF6D69"/>
<path d="M274.387 126.27L76.2213 275.488L78.021 278.724L276.187 129.506L274.387 126.27Z" fill="#FF6D69"/>
<path d="M280.476 137.22L82.3102 286.438L84.1099 289.674L282.276 140.456L280.476 137.22Z" fill="#FF6D69"/>
<path d="M293.608 174.704L95.4421 323.922L97.2418 327.158L295.407 177.94L293.608 174.704Z" fill="#FF6D69"/>
<path d="M287.519 163.754L89.353 312.972L91.1527 316.208L289.318 166.99L287.519 163.754Z" fill="#FF6D69"/>
<path d="M281.43 152.804L83.264 302.022L85.0637 305.258L283.229 156.04L281.43 152.804Z" fill="#FF6D69"/>
<path d="M299.697 185.654L101.531 334.872L103.331 338.108L301.496 188.89L299.697 185.654Z" fill="#FF6D69"/>
<path d="M305.786 196.603L107.62 345.821L109.42 349.057L307.585 199.839L305.786 196.603Z" fill="#FF6D69"/>
<path d="M311.875 207.553L113.709 356.771L115.509 360.007L313.674 210.789L311.875 207.553Z" fill="#FF6D69"/>
<path d="M317.964 218.503L119.798 367.721L121.598 370.957L319.763 221.739L317.964 218.503Z" fill="#FF6D69"/>
<path d="M154.893 -48.8104L-43.2728 100.408L-41.4731 103.644L156.693 -45.5741L154.893 -48.8104Z" fill="#FF6D69"/>
<path d="M148.804 -59.76L-49.3619 89.4584L-47.5622 92.6948L150.603 -56.5237L148.804 -59.76Z" fill="#FF6D69"/>
<path d="M142.715 -70.7099L-55.4508 78.5085L-53.6511 81.7449L144.515 -67.4736L142.715 -70.7099Z" fill="#FF6D69"/>
<path d="M160.982 -37.8604L-37.1838 111.358L-35.3841 114.594L162.782 -34.624L160.982 -37.8604Z" fill="#FF6D69"/>
<path d="M167.071 -26.9104L-31.0948 122.308L-29.2951 125.544L168.871 -23.6741L167.071 -26.9104Z" fill="#FF6D69"/>
<path d="M173.16 -15.9604L-25.0057 133.258L-23.206 136.494L174.96 -12.7241L173.16 -15.9604Z" fill="#FF6D69"/>
<path d="M179.249 -5.01043L-18.9167 144.208L-17.117 147.444L181.049 -1.77406L179.249 -5.01043Z" fill="#FF6D69"/>
<path d="M192.381 32.4726L-5.78485 181.691L-3.98516 184.927L194.181 35.7089L192.381 32.4726Z" fill="#FF6D69"/>
<path d="M186.292 21.5236L-11.874 170.742L-10.0743 173.978L188.091 24.76L186.292 21.5236Z" fill="#FF6D69"/>
<path d="M180.203 10.5736L-17.963 159.792L-16.1633 163.028L182.002 13.81L180.203 10.5736Z" fill="#FF6D69"/>
<path d="M198.47 43.4226L0.304077 192.641L2.10377 195.877L200.269 46.6589L198.47 43.4226Z" fill="#FF6D69"/>
<path d="M204.559 54.3726L6.39301 203.591L8.19269 206.827L206.358 57.609L204.559 54.3726Z" fill="#FF6D69"/>
<path d="M210.648 65.3226L12.4822 214.541L14.2819 217.777L212.448 68.5589L210.648 65.3226Z" fill="#FF6D69"/>
<path d="M216.737 76.2726L18.5711 225.491L20.3708 228.727L218.536 79.5089L216.737 76.2726Z" fill="#FF6D69"/>
</g>
</g>
<defs>
<clipPath id="clip0">
<rect width="129" height="423" fill="white"/>
</clipPath>
</defs>
</svg>
